<?xml version="1.0" encoding="UTF-8" standalone="no"?> <!-- Created with Vectornator for iOS (http://vectornator.io/) --><!DOCTYPE svg PUBLIC "-//W3C//DTD SVG 1.1//EN" "http://www.w3.org/Graphics/SVG/1.1/DTD/svg11.dtd">
<svg style="fill-rule:evenodd;clip-rule:evenodd;stroke-linecap:round;stroke-linejoin:round;" xmlns:vectornator="http://vectornator.io" xmlns:xlink="http://www.w3.org/1999/xlink" xmlns="http://www.w3.org/2000/svg" xml:space="preserve" version="1.1" viewBox="0 0 768 1024">
<metadata>
<vectornator:setting key="DimensionsVisible" value="1"/>
<vectornator:setting key="SnapToGrid" value="0"/>
<vectornator:setting key="SnapToPoints" value="0"/>
<vectornator:setting key="GuidesVisible" value="1"/>
<vectornator:setting key="RulersVisible" value="1"/>
<vectornator:setting key="CMYKEnabledKey" value="0"/>
<vectornator:setting key="SnapToEdges" value="0"/>
<vectornator:setting key="DisplayWhiteBackground" value="0"/>
<vectornator:setting key="SnapToGuides" value="1"/>
<vectornator:setting key="GridSpacing" value="36"/>
<vectornator:setting key="Units" value="Pixels"/>
<vectornator:setting key="DynamicGuides" value="0"/>
<vectornator:setting key="New" value="1"/>
</metadata>
<defs>
<linearGradient y1="525.354" id="LinearGradient" x1="-6.41113" y2="525.354" x2="766.57" gradientUnits="userSpaceOnUse" gradientTransform="matrix(1.35391 0 0 0.973857 -121.395 1.88328)">
<stop stop-opacity="0.94697" stop-color="#dc6400" offset="0.487864"/>
<stop stop-opacity="0.957071" stop-color="#ea9234" offset="0.949029"/>
</linearGradient>
<linearGradient y1="497.611" id="LinearGradient_2" x1="-93.8454" y2="496.769" x2="854.785" gradientUnits="userSpaceOnUse" gradientTransform="matrix(1.09677 0 0 1.09985 -24.2538 -53.6215)">
<stop stop-opacity="0.94697" stop-color="#dc6400" offset="0.487864"/>
<stop stop-opacity="0.957071" stop-color="#ea9234" offset="0.949029"/>
</linearGradient>
</defs>
<g id=", Layer 1" vectornator:layerName=", Layer 1">
<path d="M-128.191-0.491485L914.586-0.491485C915.627-0.491485+916.471+0.115491+916.471+0.864233L916.471+1026.14C916.471+1026.89+915.627+1027.5+914.586+1027.5L-128.191+1027.5C-129.232+1027.5-130.076+1026.89-130.076+1026.14L-130.076+0.864233C-130.076+0.115491-129.232-0.491485-128.191-0.491485Z" opacity="0" fill="url(#LinearGradient)"/>
</g>
<g id="Layer 7" vectornator:layerName="Layer 7">
<path d="M10.52-144.213L778.371-144.213C853.841-144.213+915.022-82.8601+915.022-7.17786L915.022+999.843C915.022+1075.53+853.841+1136.88+778.371+1136.88L10.52+1136.88C-64.9503+1136.88-126.131+1075.53-126.131+999.843L-126.131-7.17786C-126.131-82.8601-64.9503-144.213+10.52-144.213Z" opacity="1" fill="url(#LinearGradient_2)"/>
</g>
<g id="Layer 4" vectornator:layerName="Layer 4">
<path d="M371.906+197.75C184.965+197.75+33.4062+348.675+33.4062+534.844C33.4063+721.013+184.965+871.938+371.906+871.938C558.847+871.938+710.375+721.013+710.375+534.844C710.375+348.675+558.848+197.75+371.906+197.75Z" fill-opacity="0.439394" fill="#f59443" opacity="1"/>
</g>
<g id=": Layer 4" vectornator:layerName=": Layer 4">
<path d="M-2.00265+795.629C22.3098+901.823+132.89+969.097+238.666+944.664C238.647+943.123+242.002+935.313+238.593+936.719C143.282+949.286+56.822+882.49+40.8454+789.332C28.3918+788.72+12.028+793.898-2.00265+795.629" opacity="1" fill="#edb806"/>
<path d="M120.192+867.462C162.099+899.572+229.915+914.687+270.86+873.14C272.873+870.354+267.162+864.781+264.689+866.783C225.737+896.779+176.855+863.154+147.863+834.227C137.082+843.306+129.686+856.767+120.192+867.462" opacity="1" fill="#edb806"/>
<path d="M127.362+250.084C299.453+111.436+603.548+146.716+709.62+349.558C719.662+358.082+722.359+373.119+733.737+378.348C738.451+377.667+733.497+367.076+732.789+363.245C630.724+136.262+307.758+60.7934+109.387+206.098C113.245+219.718+121.71+235.516+127.362+250.084" opacity="1" fill="#edb806"/>
<path d="M734.156+206.418C670.963+72.6491+493.509+59.7735+366.158+87.4739C366.255+88.8655+363.317+96.9734+366.813+95.2149C483.022+82.6249+631.308+104.056+688.431+218.648C701.873+218.229+719.167+209.995+734.156+206.418" opacity="1" fill="#edb806"/>
</g>
<g id="Layer 1" vectornator:layerName="Layer 1">
<path d="M49.4628+488.722C16.1172+579.681+75.9985+668.396+78.5567+759.187C79.373+672.706+26.0001+582.139+56.0794+493.684C53.8739+492.03+51.6683+490.376+49.4628+488.722" opacity="1" fill="#fdfcff"/>
<path d="M90.3795+604.396C86.6715+586.274+76.1284+566.621+85.8361+548.637C76.2025+558.963+71.7348+603.364+90.3795+604.396" opacity="1" fill="#fdfcff"/>
<path d="M158.818+831.377C159.147+834.879+159.469+838.381+159.785+841.884C159.385+838.407+159.02+834.873+158.685+831.289" opacity="1" fill="#fdfcff"/>
<path d="M219.195+766.545C260.632+832.453+344.729+896.976+423.992+862.075C347.891+893+266.065+828.383+226.956+762.904C224.662+761.105+221.741+765.665+219.195+766.545" opacity="1" fill="#fdfcff"/>
<path d="M140.433+719.416C158.659+781.169+124.627+860.301+179.684+909.146C128.023+861.318+166.23+781.093+148.66+719.726C146.335+719.061+143.13+719.578+140.433+719.416" opacity="1" fill="#fdfcff"/>
<path d="M93.4726+583.544C116.162+607.413+119.041+641.956+135.593+669.295C122.543+643.063+123.434+604.052+100.786+579.889C98.2506+580.906+95.8762+582.258+93.4726+583.544" opacity="1" fill="#fdfcff"/>
<path d="M133.199+586.551C218.408+643.55+236.694+757.797+323.874+810.825C241.183+759.784+225.902+639.917+141.259+583.517C138.992+582.171+135.831+585.805+133.199+586.551" opacity="1" fill="#fdfcff"/>
<path d="M164.383+400.115C145.095+403.017+126.641+414.062+114.537+429.385C123.903+413.971+160.805+417.048+164.383+400.115" opacity="1" fill="#fdfcff"/>
<path d="M152.224+423.937C159.654+436.277+156.296+450.946+149.828+462.894C158.527+457.824+173.943+419.972+152.224+423.937" opacity="1" fill="#fdfcff"/>
<path d="M256.249+471.93C274.848+480.727+293.63+485.725+312.546+488.041C407.902+499.718+506.692+443.256+602.863+461.803C496.349+434.372+375.352+516.628+268.859+465.383C262.353+463.054+256.901+464.035+256.249+471.93" opacity="1" fill="#fdfcff"/>
<path d="M370.399+512.247C471.796+526.265+578.187+444.574+674.147+499.484C580.578+442.491+474.04+515.669+374.541+504.852C372.598+506.263+371.839+509.897+370.399+512.247" opacity="0" fill="#fdfcff"/>
<path d="M316.794+508.466C439.281+525.027+571.52+435.032+690.528+501.124C577.393+434.447+441.785+512.541+321.684+501.758C320.054+503.994+318.424+506.23+316.794+508.466" opacity="0" fill="#fdfcff"/>
<path d="M467.364+528.415C551.996+529.112+622.448+584.407+691.304+626.746C622.872+585.475+555.028+508.107+467.364+528.415" opacity="0" fill="#fdfcff"/>
<path d="M509.515+527.737C580.602+548.263+642.42+590.458+693.235+646.215C643.446+592.374+585.601+536.975+509.515+527.737" opacity="1" fill="#fdfcff"/>
<path d="M84.9457+1047.22C76.7851+1081.8+93.1062+1081.8+84.9457+1047.22" opacity="1" fill="#fdfcff"/>
</g>
<g id="Layer 3" vectornator:layerName="Layer 3">
<path d="M876.815+1160.67C884.826+1169.22+894.021+1176.57+902.504+1184.61C899.16+1177.9+886.383+1158.15+876.815+1160.67" opacity="1" fill="#050405"/>
<path d="M290.175+557.209C283.001+554.286+277.146+562.844+269.937+559.699C275.68+564.99+288.276+564.885+296.576+563.06C290.374+562.996+278.479+563.912+271.016+559.766C272.629+565.229+285.188+557.947+290.175+557.209" opacity="0" fill="#212123"/>
<path d="M245.865+460.297C322.41+501.364+414.931+501.402+492.109+460.065C421.116+490.162+330.815+505.211+260.425+458.777C255.586+458.099+247.68+453.476+245.865+460.297" opacity="1" fill="#212123"/>
<path d="M251.356+469.625C371.298+576.281+542.872+414.384+668.511+504.795C671.384+504.61+664.502+498.713+663.534+497.006C534.287+422.467+373.07+562.96+251.356+469.625" opacity="1" fill="#212123"/>
<path d="M257.857+492.611C259.792+499.294+264.334+504.939+270.58+508.084C381.08+555.425+520.664+483.132+616.768+574.902C644.656+589.477+666.49+616.446+687.705+636.525C667.267+610.943+643.37+587.255+614.768+570.913C516.494+473.953+362.308+562.791+257.857+492.611" opacity="1" fill="#070707"/>
</g>
<g id="Layer 2" vectornator:layerName="Layer 2">
<path d="M178.221+422.078C221.68+416.556+219.666+483.45+250.617+499.692C231.822+514.953+242.122+515.986+253.396+499.036C220.809+477.219+229.872+402.751+176.776+411.117C175.293+414.494+177.942+418.482+178.221+422.078" opacity="1" fill="#212123"/>
<path d="M128.06+481.393C90.879+463.173+72.6509+542.101+115.059+549.862C191.515+578.054+181.521+426.018+110.688+480.491C154.127+444.176+195.473+523.582+143.612+546.231C92.3727+566.621+79.0161+478.379+128.06+481.393" opacity="1" fill="#212123"/>
<path d="M130.516+485.214C84.7348+477.489+101.436+562.905+142.074+538.107C104.838+552.728+94.793+489.484+130.516+485.214" opacity="1" fill="#212123"/>
<path d="M134.079+506.323C138.414+512.771+132.361+523.745+139.296+527.172C147.367+522.264+151.48+509.859+146.612+501.297C143.181+494.914+134.72+496.756+130.269+500.874C142.399+494.913+151.856+512.328+138.031+522.282C144.517+526.911+143.38+501.121+134.079+506.323" opacity="1" fill="#212123"/>
<path d="M129.549+460.073C112.726+444.943+116.441+398.476+140.826+391.491C109.221+397.088+112.623+439.327+120.345+462.274C123.537+466.287+129.869+466.345+129.549+460.073" opacity="1" fill="#212123"/>
<path d="M103.53+480.629C91.9943+450.123+104.839+405.681+131.989+391.487C99.0272+402.886+87.1539+450.832+98.1528+481.961C100.019+481.859+101.76+481.165+103.53+480.629" opacity="1" fill="#212123"/>
<path d="M170.211+420.481C181+445.175+162.391+464.366+152.077+484.878C164.034+473.322+193.509+434.701+170.211+420.481" opacity="1" fill="#212123"/>
<path d="M155.092+415.464C138.571+428.125+135.712+452.61+131.876+472.08C137.106+457.119+150.737+430.559+155.092+415.464" opacity="1" fill="#212123"/>
<path d="M154.65+421.895C153.279+433.523+153.142+445.545+148.229+456.392C155.072+452.943+165.858+425.783+154.65+421.895" opacity="1" fill="#212123"/>
<path d="M148.986+398.771C167.19+380.947+199.726+395.847+207.816+413.565C206.075+386.509+150.152+374.644+148.986+398.771" opacity="1" fill="#212123"/>
<path d="M177.829+399.572C154.844+393.928+118.908+408.021+118.589+435.236C121.55+409.271+160.51+405.503+177.829+399.572" opacity="1" fill="#212123"/>
<path d="M149.523+412.831C128.552+414.325+118.174+437.162+112.745+454.85C118.615+440.715+138.449+421.865+149.523+412.831" opacity="1" fill="#212123"/>
<path d="M90.3337+426.143C-26.816+531.308+94.4813+701.762+81.1837+833.811C85.1285+851.913+77.9607+879.575+85.3315+893.304C83.5517+869.822+85.7352+846.179+83.2089+822.706C91.8525+692.647-12.5241+536.622+90.3337+426.143" opacity="1" fill="#212123"/>
<path d="M64.6518+495.991C45.4017+591.054+85.6403+684.556+128.61+766.878C93.4892+688.948+51.0847+593.195+69.0963+500.028C69.2209+498.077+65.9907+497.385+64.6518+495.991" opacity="1" fill="#212123"/>
<path d="M94.1874+577.882C97.6816+590.762+102.112+603.426+107.92+615.454C177.544+713.147+101.465+844.656+185.416+933.031C186.066+934.318+189.782+933.538+187.677+932.214C132.668+880.152+144.08+799.989+149.209+732.263C141.677+679.142+120.742+619.937+94.1874+577.882" opacity="1" fill="#212123"/>
<path d="M107.332+577.489C194.968+696.898+238.833+900.56+428.491+883.685C449.301+883.735+470.141+883.258+490.915+884.797C523.276+883.225+555.076+902.7+585.814+900.897C553.005+896.33+522.182+882.112+488.69+881.721C470.625+880.36+452.499+880.626+434.399+880.585C269.789+897.187+198.59+734.931+141.716+611.734C130.84+600.469+123.619+578.532+107.332+577.489" opacity="1" fill="#212123"/>
<path d="M108.167+566.515C231.624+624.649+236.102+856.312+407.177+814.985C407.998+814.926+409.964+812.454+408.443+812.408C234.833+857.681+237.734+609.289+108.167+566.515" opacity="1" fill="#212123"/>
<path d="M231.312+440.572C307.825+489.408+388.788+457.536+470.165+442.045C510.153+434.433+550.241+430.776+589.951+442.595C601.595+444.68+613.44+445.122+625.215+445.991C641.747+447.041+658.869+448.028+674.768+442.438C705.999+427.554+741.712+408.55+760.931+380.876C735.463+406.624+704.383+427.256+670.721+440.533C653.535+445.514+635.434+443.458+617.866+442.328C487.643+399.339+356.695+500.08+231.312+440.572" opacity="1" fill="#212123"/>
<path d="M148.778+570.207C239.56+660.094+280.282+839.132+435.037+840.727C457.623+842.807+481.19+852.195+503.372+848.666C484.489+846.841+459.704+842.666+438.951+838.479C293.312+837.333+243.83+675.226+168.919+579.042C162.7+575.112+156.508+566.608+148.778+570.207" opacity="1" fill="#212123"/>
<path d="M83.0423+731.558C113.495+784.859+100.554+851.533+134.739+903.103C103.78+857.201+123.421+771.724+83.0423+731.558" opacity="1" fill="#212123"/>
<path d="M260.685+501.894C344.792+525.814+436.361+532.367+524.757+544.821C597.843+555.118+668.76+569.45+731.498+600.969C599.958+528.715+420.283+543.01+269.64+499.195C265.518+497.6+262.954+499.655+260.685+501.894" opacity="0" fill="#212123"/>
<path d="M177.44+734.456C182.839+780.3+182.936+830.846+209.453+870.643C186.995+834.694+193.456+770.831+177.44+734.456" opacity="1" fill="#212123"/>
<path d="M190.312+568.699C190.329+582.048+187.72+597.003+196.455+608.368C191.581+599.957+201.87+573.27+190.312+568.699" opacity="1" fill="#212123"/>
<path d="M198.64+484.827C198.365+476.08+207.756+469.799+215.82+469.319C210.31+462.485+185.806+479.888+198.64+484.827" opacity="1" fill="#212123"/>
<path d="M207.764+487.013C211.881+485.827+217.6+493.713+210.929+487.357C212.833+489.203+220.051+497.446+218.05+496.338C211.143+491.663+212.735+480.642+213.935+475.87C206.912+481.979+210.897+495.77+218.485+499.221C225.723+496.649+215.405+484.858+210.702+483.855C208.357+487.046+211.83+493.576+215.393+494.752C214.721+482.773+212.058+486.478+207.764+487.013" opacity="1" fill="#212123"/>
<path d="M87.3119+603.344C85.5182+584.89+83.7023+565.638+87.4436+547.334C82.0761+559.981+76.386+593.601+87.3119+603.344" opacity="1" fill="#212123"/>
<path d="M236.634+534.257C252.498+566.666+205.78+546.676+192.371+547.704C206.216+559.661+265.067+559.488+236.634+534.257" opacity="1" fill="#212123"/>
<path d="M239.798+515.257C232.149+522.365+219.245+520.401+214.055+516.186C220.631+521.782+230.775+527.604+239.509+524.922C231.511+525.276+221.013+521.222+214.106+514.5C216.137+525.618+236.139+524.679+239.798+515.257" opacity="1" fill="#212123"/>
</g>
<g id="Layer 5" vectornator:layerName="Layer 5">
<path d="M118.211+476.898C81.6353+483.072+81.3196+541.618+114.482+554.329C195.204+582.152+181.551+432.394+109.33+476.712C146.266+458.257+193.103+512.622+151.064+544.404C104.403+571.878+75.6226+496.741+118.211+476.898" opacity="1" fill="#000000"/>
<path d="M100.041+475.095C90.7213+445.269+101.969+404.805+133.473+393.549C129.368+396.551+128.24+388.554+128.482+388.834C100.099+405.82+75.0887+461.818+101.538+482.572C85.4295+449.663+104.978+409.416+134.745+392.766C136.54+390.68+135.367+386.896+132.458+386.586C96.485+393.695+77.7852+454.551+100.041+475.095" opacity="1" fill="#000000"/>
<path d="M127.783+392.382C112.198+414.089+104.114+450.851+129.504+468.454C131.965+469.031+134.431+466.335+133.623+463.947C117.94+445.418+118.532+413.094+134.477+394.828C111.877+397.988+113.494+448.105+126.911+466.611C126.598+466.954+127.973+457.996+132.275+461.971C108.505+444.217+128.538+411.067+127.783+392.382" opacity="1" fill="#000000"/>
<path d="M122.363+485.76C90.4364+487.13+99.5032+549.367+133.156+540.663C130.302+540.482+130.09+535.167+132.128+534.531C109.191+535.363+105.98+499.095+123.848+488.517C124.892+487.24+126.019+485.959+120.518+485.008C94.2607+498.182+110.506+551.509+137.579+537.866C112.181+538.271+97.9724+500.794+122.363+485.76" opacity="1" fill="#000000"/>
<path d="M136.445+474.558C170.065+486.98+166.726+538.307+139.753+556.27C173.171+550.129+180.434+477.619+138.109+469.363C136.954+470.638+136.913+472.835+136.445+474.558" opacity="1" fill="#000000"/>
</g>
</svg>
